<?xml version="1.0" standalone="no"?><!DOCTYPE svg PUBLIC "-//W3C//DTD SVG 1.1//EN" "http://www.w3.org/Graphics/SVG/1.1/DTD/svg11.dtd"><svg t="1558020304294" class="icon" style="" viewBox="0 0 1024 1024" version="1.1" xmlns="http://www.w3.org/2000/svg" p-id="968" xmlns:xlink="http://www.w3.org/1999/xlink" width="200" height="200"><defs><style type="text/css"></style></defs><path d="M782 571.9c17.8-39.9 29-77.1 29-107.6 0-150.7-122.2-272.9-272.8-272.9S265.4 313.6 265.4 464.3c0 137.6 227.5 411.3 267 455.1 3.1 3.5 8.5 3.5 11.7 0 22.6-25 106.8-125.3 174.6-232.3M538.2 570.5c-65.5 0-118.6-53.1-118.6-118.7s53.1-118.7 118.6-118.7 118.6 53.1 118.6 118.7-53.1 118.7-118.6 118.7z" fill="#C5E5FF" p-id="969"></path><path d="M512 960c-5.3 0-10.4-2.3-14-6.3-3.2-3.6-323-369.1-323-552.7 0-185.8 151.2-337 337-337s337 151.2 337 337.1c0 35.4-12 80.1-35.6 133-2.1 4.8-7.8 7-12.5 4.8-4.8-2.1-6.9-7.8-4.8-12.5 22.5-50.5 34-92.6 34-125.3C830 225.7 687.4 83 512 83S194 225.7 194 401.1c0 154.3 255 470 318.1 539.9 28.3-31.4 127.5-149.9 208.5-277.6 2.8-4.4 8.7-5.8 13.1-2.9 4.4 2.8 5.7 8.7 2.9 13.1C654.9 802.4 554.7 922 526 953.7c-3.5 4-8.7 6.3-14 6.3z m0-422c-83.8 0-151.9-68.2-151.9-151.9s68.2-152 151.9-152S663.9 302.3 663.9 386 595.8 538 512 538z m0-284.9c-73.3 0-132.9 59.6-132.9 132.9S438.7 519 512 519s132.9-59.6 132.9-132.9-59.6-133-132.9-133z" fill="#3B94FF" p-id="970"></path></svg>